<svg xmlns="http://www.w3.org/2000/svg" width="48" height="48" viewBox="0 0 48 48" fill="none"><mask id="mask0_16_93" style="mask-type:alpha" maskUnits="userSpaceOnUse" x="0" y="0" width="48" height="48"><rect width="48" height="48" fill="#D9D9D9"></rect></mask><g mask="url(#mask0_16_93)"><path d="M23.2674 40.0655V24.4021L9.56165 16.5117V31.4828C9.56165 31.6879 9.61294 31.8802 9.7155 32.0597C9.81807 32.2392 9.9719 32.3931 10.177 32.5213L23.2674 40.0655ZM24.7771 40.0655L37.8232 32.5213C38.0283 32.3931 38.1821 32.2392 38.2847 32.0597C38.3873 31.8802 38.4386 31.6879 38.4386 31.4828V16.4809L24.7771 24.4132V40.0655ZM24.0001 23.1694L37.5444 15.2847L24.6376 7.84051C24.4325 7.73795 24.2273 7.68666 24.0222 7.68666C23.8171 7.68666 23.612 7.73795 23.4069 7.84051L10.4886 15.2847L24.0001 23.1694ZM9.4443 33.829C8.9693 33.5481 8.6185 33.2 8.3919 32.7847C8.1653 32.3693 8.052 31.9161 8.052 31.4251V16.5309C8.052 16.0765 8.1653 15.6356 8.3919 15.2084C8.6185 14.7812 8.9693 14.4271 9.4443 14.1463L22.652 6.53281C23.0982 6.26615 23.5498 6.13281 24.0069 6.13281C24.4639 6.13281 24.9257 6.26615 25.3924 6.53281L38.6001 14.1463C39.0456 14.4271 39.3817 14.7812 39.6083 15.2084C39.8349 15.6356 39.9482 16.0765 39.9482 16.5309V31.4251C39.9482 31.9161 39.8349 32.3735 39.6083 32.7972C39.3817 33.2209 39.0456 33.5584 38.6001 33.8097L25.3924 41.4674C24.9148 41.7341 24.4475 41.8674 23.9905 41.8674C23.5334 41.8674 23.0873 41.7341 22.652 41.4674L9.4443 33.829Z" fill="#97C21B"></path></g></svg>