<svg xmlns="http://www.w3.org/2000/svg" width="48" height="48" viewBox="0 0 48 48" fill="none"><mask id="mask0_16_79" style="mask-type:alpha" maskUnits="userSpaceOnUse" x="0" y="0" width="48" height="48"><rect width="48" height="48" fill="#D9D9D9"></rect></mask><g mask="url(#mask0_16_79)"><path d="M34.9039 28.9633V27.4537H40.2308C40.4667 27.4537 40.6552 27.5244 40.7962 27.6656C40.9373 27.8069 41.0078 27.9957 41.0078 28.232C41.0078 28.4606 40.9373 28.6396 40.7962 28.7691C40.6552 28.8986 40.4667 28.9633 40.2308 28.9633H34.9039ZM34.9039 36.9633V35.4537H40.2308C40.4667 35.4537 40.6552 35.5244 40.7962 35.6656C40.9373 35.8069 41.0078 35.9957 41.0078 36.232C41.0078 36.4606 40.9373 36.6396 40.7962 36.7691C40.6552 36.8986 40.4667 36.9633 40.2308 36.9633H34.9039ZM29.0001 38.9633C27.9665 38.9633 27.086 38.5791 26.3586 37.8105C25.6311 37.0419 25.2674 36.0925 25.2674 34.9622H20.9039V29.4537H25.2674C25.2674 28.3537 25.6311 27.4121 26.3586 26.6287C27.086 25.8454 27.9665 25.4537 29.0001 25.4537H33.1712V38.9633H29.0001ZM13.9039 32.9633C11.9371 32.9633 10.3008 32.3118 8.99512 31.0087C7.68945 29.7056 7.03662 28.0658 7.03662 26.0894C7.03662 24.1387 7.68945 22.5066 8.99512 21.1931C10.3008 19.8797 11.9371 19.2229 13.9039 19.2229H17.0001C18.2491 19.2229 19.295 18.8069 20.1378 17.9748C20.9806 17.1427 21.402 16.1052 21.402 14.8623C21.402 13.6451 20.9806 12.614 20.1378 11.7691C19.295 10.9243 18.2491 10.5018 17.0001 10.5018H9.76932C9.54109 10.5018 9.36192 10.4366 9.23182 10.3062C9.10169 10.1758 9.03662 9.99635 9.03662 9.76779C9.03662 9.53149 9.10169 9.34315 9.23182 9.20279C9.36192 9.06239 9.54109 8.99219 9.76932 8.99219H17.0001C18.6632 8.99219 20.0642 9.56137 21.2032 10.6997C22.3421 11.8381 22.9116 13.2256 22.9116 14.8622C22.9116 16.5245 22.3421 17.9185 21.2032 19.0441C20.0642 20.1698 18.6632 20.7326 17.0001 20.7326H13.9039C12.3849 20.7326 11.1122 21.2483 10.0858 22.2796C9.0594 23.311 8.54622 24.5834 8.54622 26.0969C8.54622 27.6361 9.0594 28.9137 10.0858 29.9297C11.1122 30.9457 12.3849 31.4537 13.9039 31.4537H19.1712V32.9633H13.9039Z" fill="#97C21B"></path></g></svg>
