<svg xmlns="http://www.w3.org/2000/svg" width="48" height="48" viewBox="0 0 48 48" fill="none"><mask id="mask0_16_107" style="mask-type:alpha" maskUnits="userSpaceOnUse" x="0" y="0" width="48" height="48"><rect width="48" height="48" fill="#D9D9D9"></rect></mask><g mask="url(#mask0_16_107)"><path d="M17.4268 39.0616L6.91912 28.5539C6.65758 28.2855 6.45182 27.9655 6.30182 27.5939C6.15182 27.2224 6.07042 26.8647 6.05762 26.5208C6.05762 26.0962 6.13582 25.7161 6.29222 25.3805C6.44862 25.0448 6.65758 24.727 6.91912 24.427L18.4807 12.8905L12.5192 7.04434L13.6134 6.01929L32.0268 24.4683C32.3272 24.7536 32.5527 25.0722 32.7031 25.424C32.8536 25.7759 32.9288 26.1566 32.9288 26.5661C32.9288 26.9115 32.8536 27.2689 32.7031 27.6383C32.5527 28.0077 32.326 28.3257 32.023 28.5924L21.598 39.0616C21.2685 39.3527 20.936 39.569 20.6003 39.7107C20.2647 39.8524 19.8993 39.9232 19.5042 39.9232C19.1308 39.9399 18.7584 39.8732 18.3869 39.7232C18.0153 39.5732 17.6953 39.3527 17.4268 39.0616ZM19.4672 13.877L7.76722 25.6597C7.60055 25.8097 7.49478 25.9616 7.44992 26.1155C7.40505 26.2693 7.38262 26.4251 7.38262 26.5828H31.6345C31.6345 26.4251 31.6089 26.2693 31.5576 26.1155C31.5063 25.9616 31.4038 25.8097 31.2499 25.6597L19.4672 13.877ZM38.75 39.9424C37.8898 39.9424 37.1558 39.6247 36.5481 38.9894C35.9403 38.3541 35.6365 37.6006 35.6365 36.7289C35.6365 36.0106 35.7669 35.3314 36.0278 34.6912C36.2887 34.051 36.6519 33.4552 37.1172 32.9039L38.7672 30.8347L40.4999 32.9039C40.9615 33.4514 41.3236 34.0462 41.5865 34.6883C41.8493 35.3304 41.9807 36.0106 41.9807 36.7289C41.9807 37.6429 41.6679 38.407 41.0422 39.0212C40.4166 39.6353 39.6525 39.9424 38.75 39.9424Z" fill="#97C21B"></path></g></svg>