<svg xmlns="http://www.w3.org/2000/svg" width="48" height="48" viewBox="0 0 48 48" fill="none"><mask id="mask0_16_86" style="mask-type:alpha" maskUnits="userSpaceOnUse" x="0" y="0" width="48" height="48"><rect width="48" height="48" fill="#D9D9D9"></rect></mask><g mask="url(#mask0_16_86)"><path d="M8.88319 33.9136C8.13612 33.9136 7.49287 33.6436 6.95344 33.1036C6.414 32.5636 6.14429 31.92 6.14429 31.1729V16.8256C6.14429 16.0804 6.41429 15.4376 6.95429 14.8972C7.49425 14.3569 8.13777 14.0867 8.88484 14.0867H39.117C39.8641 14.0867 40.5073 14.3571 41.0467 14.8981C41.5862 15.439 41.8559 16.0821 41.8559 16.8273V31.1747C41.8559 31.9218 41.5859 32.565 41.0459 33.1045C40.5059 33.6439 39.8624 33.9136 39.1153 33.9136H8.88319ZM8.88469 32.404H39.1155C39.4232 32.404 39.7052 32.2758 39.9616 32.0194C40.218 31.7629 40.3462 31.4809 40.3462 31.1732V16.827C40.3462 16.5194 40.218 16.2373 39.9616 15.9809C39.7052 15.7245 39.4232 15.5963 39.1155 15.5963H33.1661V22.4617H31.6614V15.5963H24.7721V22.4617H23.2674V15.5963H16.3668V22.4617H14.8509V15.5963H8.88469C8.57699 15.5963 8.29494 15.7245 8.03854 15.9809C7.78214 16.2373 7.65394 16.5194 7.65394 16.827V31.1732C7.65394 31.4809 7.78214 31.7629 8.03854 32.0194C8.29494 32.2758 8.57699 32.404 8.88469 32.404Z" fill="#97C21B"></path></g></svg>