<svg xmlns="http://www.w3.org/2000/svg" width="48" height="48" viewBox="0 0 48 48" fill="none"><mask id="mask0_16_117" style="mask-type:alpha" maskUnits="userSpaceOnUse" x="0" y="0" width="48" height="48"><rect width="48" height="48" fill="#D9D9D9"></rect></mask><g mask="url(#mask0_16_117)"><path d="M21.8444 29.4673L31.7867 19.5634L30.7674 18.473L21.9174 27.323L17.252 22.6577L16.1713 23.7384L21.8444 29.4673ZM24.0001 41.8538C19.988 40.6198 16.6603 38.1611 14.017 34.4777C11.3737 30.7943 10.052 26.6483 10.052 22.0399V11.4183L24.0001 6.19995L37.9482 11.4183V22.0399C37.9482 26.6483 36.6266 30.7943 33.9833 34.4777C31.34 38.1611 28.0122 40.6198 24.0001 41.8538ZM24.0001 40.225C27.6172 39.0561 30.5946 36.7745 32.9322 33.3804C35.2698 29.9862 36.4386 26.2068 36.4386 22.0423V12.427L24.0001 7.7942L11.5617 12.427V22.0423C11.5617 26.2068 12.7305 29.9862 15.0681 33.3804C17.4057 36.7745 20.383 39.0561 24.0001 40.225Z" fill="#97C21B"></path></g></svg>
