<svg xmlns="http://www.w3.org/2000/svg" width="48" height="48" viewBox="0 0 48 48" fill="none"><mask id="mask0_16_100" style="mask-type:alpha" maskUnits="userSpaceOnUse" x="0" y="0" width="48" height="48"><rect width="48" height="48" fill="#D9D9D9"></rect></mask><g mask="url(#mask0_16_100)"><path d="M12.8712 38.4539H35.1289C35.4879 38.4539 35.7956 38.3096 36.052 38.0212C36.3084 37.7327 36.411 37.4026 36.3597 37.0308L33.6895 18.5404C33.6638 18.2327 33.5292 17.9827 33.2856 17.7904C33.042 17.5981 32.7664 17.5019 32.4587 17.5019H15.527C15.2193 17.5019 14.9437 17.5981 14.7001 17.7904C14.4565 17.9827 14.3218 18.2327 14.2962 18.5404L11.6405 37.0308C11.5892 37.4026 11.6917 37.7327 11.9481 38.0212C12.2045 38.3096 12.5122 38.4539 12.8712 38.4539ZM24.0051 15.9923C24.7017 15.9923 25.2914 15.7567 25.7741 15.2854C26.2568 14.8141 26.4982 14.2301 26.4982 13.5335C26.4982 12.8368 26.2595 12.2471 25.7823 11.7644C25.3051 11.2817 24.7137 11.0404 24.0083 11.0404C23.3028 11.0404 22.7161 11.279 22.2481 11.7562C21.7802 12.2334 21.5462 12.8248 21.5462 13.5303C21.5462 14.2357 21.7818 14.8224 22.2531 15.2904C22.7244 15.7583 23.3084 15.9923 24.0051 15.9923ZM27.202 15.9923H32.5116C33.192 15.9923 33.7906 16.2192 34.3075 16.6731C34.8243 17.1269 35.1263 17.7013 35.2135 18.3962L37.8578 36.8866C37.936 37.7045 37.7153 38.4218 37.1959 39.0385C36.6764 39.6551 35.9874 39.9635 35.1289 39.9635H12.8712C12.0084 39.9635 11.3184 39.653 10.8011 39.0322C10.2837 38.4113 10.0642 37.6961 10.1424 36.8866L12.7866 18.3962C12.8738 17.7013 13.1758 17.1269 13.6927 16.6731C14.2095 16.2192 14.8081 15.9923 15.4885 15.9923H20.8424C20.5719 15.6833 20.3699 15.3138 20.2366 14.8836C20.1033 14.4534 20.0366 14.0034 20.0366 13.5336C20.0366 12.4046 20.4183 11.4552 21.1817 10.6854C21.9451 9.91565 22.8868 9.53076 24.0068 9.53076C25.1267 9.53076 26.0735 9.91565 26.8472 10.6854C27.6209 11.4552 28.0078 12.4046 28.0078 13.5336C28.0078 14.0087 27.9337 14.46 27.7857 14.8876C27.6376 15.3151 27.443 15.6833 27.202 15.9923Z" fill="#97C21B"></path></g></svg>